# xmcd
#
# Track frame offsets:
#	150
#	11060
#	23050
#	33170
#	47682
#	62900
#	72837
#	92285
#	104030
#	122392
#	142107
#	153970
#	166052
#	180527
#	194737
#	206400
#	220432
#	233650
#
# Disc length: 3291
#
# Revision: 2
# Processed by: cddbd v1.5.1PL0 Copyright (c) Steve Scherf et al.
# Submitted via: audiograbber 1.80
# Normalized: r1:DSETVAR1
#
DISCID=f40cd912
DTITLE=Various Artist - Country Roads
DYEAR=1900
DGENRE=
TTITLE0=Willie Nelson - On the Road Again
TTITLE1=Johnny Paycheck - Take This Job and Shove It
TTITLE2=Don Gibson - Sea of Heartbreak
TTITLE3=Bellamy Brothers - Let Your Love Flow
TTITLE4=Juice Newton - Queen of Hearts
TTITLE5=George Hamilton IV - Abilene
TTITLE6=Kenny Rogers - Coward of the County
TTITLE7=Johnny Cash - Ring of Fire
TTITLE8=Merle Haggard - Mama Don't Let Your Babies Grow Up to be Cowboys
TTITLE9=Alabama - Roll On (Eighteen Wheeler)
TTITLE10=Charlie Pride - Six Days on the Road
TTITLE11=Tammy Wynette - Stand By Your Man
TTITLE12=Ronnie Milsap - There's No Getting Over Me
TTITLE13=Glen Campbell - Rhinestone Cowboy
TTITLE14=Tom T. Hall - Pamela Brown
TTITLE15=Eddie Rabbit - I Love a Rainy Night
TTITLE16=Lynn Anderson - I Never Promised You A Rose Garden
TTITLE17=Waylon Jennings and Willie Nelson - Good Hearted Woman
EXTD=This is one of the few CD's I have not found in the database.  I found this\nin 1994 in Australia.  It is on the Hitbound label, catalog no HB0038CD.\nThe quality on this is decent, and I looked for other CD's of this label\non a trip 
EXTD=back to Australia in 1995, but never found anything else.
EXTT0=
EXTT1=
EXTT2=
EXTT3=
EXTT4=
EXTT5=
EXTT6=
EXTT7=
EXTT8=
EXTT9=
EXTT10=
EXTT11=
EXTT12=
EXTT13=
EXTT14=
EXTT15=
EXTT16=
EXTT17=
PLAYORDER=
